<?xml version="1.0" standalone="no"?>
<!DOCTYPE svg PUBLIC "-//W3C//DTD SVG 20010904//EN"
 "http://www.w3.org/TR/2001/REC-SVG-20010904/DTD/svg10.dtd">
<svg version="1.0" xmlns="http://www.w3.org/2000/svg"
 width="1280.000000pt" height="433.000000pt" viewBox="0 0 1280.000000 433.000000"
 preserveAspectRatio="xMidYMid meet">

<g transform="translate(0.000000,433.000000) scale(0.100000,-0.100000)"
fill="#000000" stroke="none">
<path d="M1475 4294 c-374 -54 -687 -204 -945 -451 -145 -139 -253 -283 -335
-448 -102 -204 -145 -357 -167 -589 -30 -315 57 -666 235 -951 251 -403 649
-671 1132 -762 135 -26 432 -23 589 6 310 56 562 187 782 408 230 231 352 499
395 873 11 101 7 348 -7 413 l-6 27 -739 0 -739 0 0 -215 0 -215 526 0 527 0
-7 -54 c-8 -73 -51 -218 -87 -295 -65 -141 -174 -260 -334 -363 -152 -99 -318
-152 -518 -167 -237 -18 -443 19 -632 114 -328 164 -549 451 -626 816 -30 141
-31 353 -1 489 102 479 453 827 927 921 91 18 348 18 440 0 194 -38 364 -119
523 -249 l55 -44 151 151 151 152 -54 47 c-152 133 -370 259 -545 316 -161 53
-257 67 -466 71 -107 2 -208 1 -225 -1z"/>
<path d="M4215 3134 c-280 -49 -526 -204 -677 -427 -59 -87 -124 -230 -149
-327 -30 -121 -37 -344 -14 -464 64 -345 283 -623 595 -757 154 -66 242 -83
430 -83 141 0 178 3 255 23 408 106 693 407 770 814 20 103 19 293 -1 398 -69
366 -310 650 -657 774 -174 62 -376 80 -552 49z m365 -420 c95 -31 198 -101
260 -176 238 -285 187 -745 -105 -954 -200 -142 -464 -144 -663 -4 -166 117
-262 310 -262 530 0 435 378 731 770 604z"/>
<path d="M8745 3140 c-458 -71 -825 -472 -864 -942 -25 -312 84 -612 300 -826
101 -99 166 -145 284 -202 146 -71 241 -93 400 -94 145 -1 236 19 343 73 69
35 178 116 193 142 5 10 17 19 26 19 14 0 15 -18 10 -157 -8 -239 -48 -356
-159 -467 -101 -100 -223 -146 -393 -146 -234 0 -389 101 -530 344 -9 17 -27
11 -195 -59 -102 -42 -188 -79 -192 -82 -21 -12 98 -198 188 -293 130 -138
288 -234 459 -281 112 -30 344 -37 473 -15 356 62 613 288 717 630 59 196 58
161 62 1279 l4 1027 -215 0 -216 0 0 -85 c0 -52 -4 -85 -10 -85 -6 0 -39 24
-73 53 -80 67 -185 122 -284 148 -91 23 -242 32 -328 19z m340 -424 c250 -91
397 -339 383 -650 -11 -240 -123 -433 -308 -530 -162 -85 -339 -85 -510 1
-144 73 -260 224 -305 398 -22 81 -22 250 -1 340 56 236 247 425 471 465 75
13 197 3 270 -24z"/>
<path d="M11588 3135 c-372 -71 -663 -343 -763 -717 -159 -592 156 -1163 724
-1316 84 -22 116 -25 261 -26 139 0 179 3 253 22 192 48 352 139 489 279 66
66 128 139 128 150 0 1 -77 54 -171 117 l-171 114 -92 -93 c-137 -139 -249
-189 -431 -189 -166 0 -289 50 -393 158 -53 56 -120 152 -111 161 2 2 314 132
693 289 378 157 690 287 693 290 5 5 -56 154 -94 230 -70 141 -203 299 -319
382 -78 56 -194 111 -286 135 -98 27 -305 34 -410 14z m372 -414 c74 -28 148
-86 184 -144 16 -26 27 -49 25 -50 -4 -4 -887 -370 -923 -383 -18 -7 -19 -3
-12 69 14 155 65 266 171 372 73 73 157 124 251 150 72 21 233 14 304 -14z"/>
</g>
</svg>
